<?xml version="1.0" encoding="UTF-8"?><svg id="Layer_2" xmlns="http://www.w3.org/2000/svg" viewBox="0 0 619.54 623.66"><defs><style>.cls-1{fill:#fff;stroke-width:0px;}</style></defs><g id="Layer_1-2"><path class="cls-1" d="M151.05,602.61c0,11.63-9.43,21.06-21.06,21.06H40.34c-11.63,0-21.06-9.43-21.06-21.06V226.81c0-11.63,9.43-21.06,21.06-21.06h89.65c11.63,0,21.06,9.43,21.06,21.06v375.79ZM85.16,170.33C38.13,170.33,0,132.2,0,85.16S38.13,0,85.16,0s85.16,38.13,85.16,85.16-38.13,85.16-85.16,85.16ZM619.54,604.3c0,10.69-8.67,19.36-19.36,19.36h-96.2c-10.69,0-19.36-8.67-19.36-19.36v-176.27c0-26.3,7.71-115.23-68.72-115.23-59.29,0-71.31,60.87-73.73,88.19v203.31c0,10.69-8.67,19.36-19.36,19.36h-93.04c-10.69,0-19.36-8.67-19.36-19.36V225.12c0-10.69,8.67-19.36,19.36-19.36h93.04c10.69,0,19.36,8.67,19.36,19.36v32.79c21.98-32.99,54.65-58.45,124.21-58.45,154.04,0,153.15,143.91,153.15,222.98v181.88h0Z"/></g></svg>