<?xml version="1.0" encoding="UTF-8"?><svg id="Layer_2" xmlns="http://www.w3.org/2000/svg" viewBox="0 0 623.72 623.66"><defs><style>.cls-1{fill:#fff;stroke-width:0px;}</style></defs><g id="Layer_1-2"><path class="cls-1" d="M477.53,114.82c-20.88,0-36.53,15.66-36.53,36.53s15.66,36.53,36.53,36.53,36.53-15.66,36.53-36.53c0-20.88-15.66-36.53-36.53-36.53Z"/><path class="cls-1" d="M313.14,161.79c-86.11,0-153.96,70.46-153.96,153.96s70.46,153.96,153.96,153.96,153.96-70.46,153.96-153.96-67.85-153.96-153.96-153.96ZM313.14,414.91c-54.8,0-99.16-44.36-99.16-99.16s44.36-99.16,99.16-99.16,99.16,44.36,99.16,99.16-44.36,99.16-99.16,99.16Z"/><path class="cls-1" d="M438.39,0h-247.9C83.5,0,0,83.5,0,187.88v247.9c0,104.38,83.5,187.88,187.88,187.88h247.9c104.38,0,187.88-83.5,187.88-187.88v-247.9C626.27,83.5,542.77,0,438.39,0ZM566.26,438.39c0,70.46-57.41,130.47-130.47,130.47h-247.9c-70.46,0-130.47-57.41-130.47-130.47v-247.9c0-70.46,57.41-130.47,130.47-130.47h247.9c70.46,0,130.47,57.41,130.47,130.47v247.9Z"/></g></svg>