<svg width="27" height="27" viewBox="0 0 27 27" fill="none" xmlns="http://www.w3.org/2000/svg">
<g clip-path="url(#clip0_5_15)">
<path d="M20.6716 4.97083C19.7677 4.97083 19.0903 5.64879 19.0903 6.55231C19.0903 7.45583 19.7682 8.1338 20.6716 8.1338C21.575 8.1338 22.2529 7.45583 22.2529 6.55231C22.2529 5.64836 21.575 4.97083 20.6716 4.97083Z" fill="#D3D3D3"/>
<path d="M13.5554 7.00439C9.82782 7.00439 6.89069 10.0548 6.89069 13.6698C6.89069 17.2847 9.94081 20.3351 13.5554 20.3351C17.17 20.3351 20.2201 17.2847 20.2201 13.6698C20.2201 10.0548 17.283 7.00439 13.5554 7.00439ZM13.5554 17.9627C11.1832 17.9627 9.2629 16.0422 9.2629 13.6698C9.2629 11.2973 11.1832 9.37684 13.5554 9.37684C15.9276 9.37684 17.8479 11.2973 17.8479 13.6698C17.8479 16.0422 15.9276 17.9627 13.5554 17.9627Z" fill="#D3D3D3"/>
<path d="M18.9773 0H8.24606C3.6146 0 0 3.61495 0 8.13385V18.8661C0 23.385 3.6146 27 8.13307 27H18.8643C23.3828 27 26.9974 23.385 26.9974 18.8661V8.13385C27.1104 3.61495 23.4958 0 18.9773 0ZM24.5126 18.9791C24.5126 22.0296 22.0274 24.6276 18.8648 24.6276H8.13351C5.08339 24.6276 2.48563 22.1421 2.48563 18.9791V8.24685C2.48563 5.19644 4.97084 2.59844 8.13351 2.59844H18.8648C21.9149 2.59844 24.5126 5.08388 24.5126 8.24685V18.9791Z" fill="#D3D3D3"/>
</g>
<defs>
<clipPath id="clip0_5_15">
<rect width="27" height="27" fill="white"/>
</clipPath>
</defs>
</svg>
