<svg width="27" height="27" viewBox="0 0 27 27" fill="none" xmlns="http://www.w3.org/2000/svg">
<g clip-path="url(#clip0_5_12)">
<path d="M6.58287 26.0887C6.58287 26.5922 6.1719 27.0004 5.66506 27.0004H1.75805C1.2512 27.0004 0.840236 26.5922 0.840236 26.0887V9.81924C0.840236 9.31575 1.2512 8.9075 1.75805 8.9075H5.66506C6.1719 8.9075 6.58287 9.31575 6.58287 9.81924V26.0883V26.0887ZM3.71133 7.37407C1.66173 7.37407 0 5.72331 0 3.68682C0 1.65032 1.66173 0 3.71133 0C5.76094 0 7.42267 1.65076 7.42267 3.68682C7.42267 5.72288 5.76094 7.37363 3.71133 7.37363V7.37407ZM27 26.1618C27 26.6246 26.6222 27 26.1563 27H21.9638C21.4979 27 21.1201 26.6246 21.1201 26.1618V18.5306C21.1201 17.392 21.4561 13.542 18.1252 13.542C15.5413 13.542 15.0175 16.1772 14.912 17.36V26.1618C14.912 26.6246 14.5342 27 14.0683 27H10.0135C9.54766 27 9.16982 26.6246 9.16982 26.1618V9.74608C9.16982 9.28328 9.54766 8.90793 10.0135 8.90793H14.0683C14.5342 8.90793 14.912 9.28328 14.912 9.74608V11.1657C15.8699 9.73742 17.2937 8.63519 20.3252 8.63519C27.0384 8.63519 26.9996 14.8655 26.9996 18.2886V26.1627L27 26.1618Z" fill="#D9D9D9"/>
</g>
<defs>
<clipPath id="clip0_5_12">
<rect width="27" height="27" fill="white"/>
</clipPath>
</defs>
</svg>
