<svg width="40" height="28" viewBox="0 0 40 28" fill="none" xmlns="http://www.w3.org/2000/svg">
<path d="M3.30633 0.5H36.6933C37.4624 0.5 38.1627 0.818598 38.6728 1.33372L38.6771 1.33812C38.721 1.38255 38.7621 1.42778 38.8037 1.47541C38.8475 1.50703 38.8887 1.54345 38.927 1.58548C39.0077 1.67513 39.065 1.77719 39.0998 1.88486C39.3541 2.31153 39.5 2.81064 39.5 3.34177V24.6578C39.5 25.4371 39.1848 26.1464 38.6763 26.6627L38.672 26.6671C38.6463 26.6931 38.6194 26.7191 38.5925 26.7455C38.5589 26.7807 38.5217 26.8124 38.4838 26.8408C37.9962 27.2526 37.3706 27.5 36.6937 27.5H3.30633C2.61118 27.5 1.97138 27.239 1.47828 26.808L1.47512 26.8056L1.46405 26.7956L1.44942 26.7832L1.44823 26.782C1.40671 26.7443 1.36638 26.7059 1.32723 26.6663L1.32288 26.6619C0.813968 26.1456 0.5 25.4367 0.5 24.6582V3.34217C0.5 2.56288 0.815154 1.85364 1.32367 1.33732L1.32802 1.33292C1.83812 0.818598 2.53842 0.5 3.30633 0.5ZM37.8969 3.64956L25.0346 15.6646L37.8317 25.0521C37.8732 24.9296 37.8965 24.7967 37.8965 24.6582L37.8969 3.64956ZM23.8344 16.7865L21.5825 18.889C21.1432 19.2997 20.5694 19.5062 20 19.5062C19.4306 19.5062 18.8568 19.2997 18.4171 18.889L16.1664 16.7865L3.77254 25.8766H36.2267L23.8344 16.7865ZM14.9658 15.6646L2.10266 3.64836V24.6582C2.10266 24.7967 2.12638 24.9296 2.16751 25.0521L14.9658 15.6646ZM2.90498 2.19265L16.6784 15.0607C16.7468 15.1059 16.8085 15.1639 16.8623 15.232L19.501 17.6963C19.633 17.82 19.8149 17.8824 19.9996 17.8824C20.1843 17.8824 20.3662 17.82 20.4982 17.6963L37.0954 2.19265C36.9689 2.14823 36.8344 2.12341 36.6929 2.12341H3.30633C3.16635 2.12341 3.03072 2.14823 2.90498 2.19265Z" fill="#D9D9D9" stroke="#D3D3D3"/>
</svg>
